<!DOCTYPE svg PUBLIC "-//W3C//DTD SVG 20010904//EN" "http://www.w3.org/TR/2001/REC-SVG-20010904/DTD/svg10.dtd">
<svg version="1.0" xmlns="http://www.w3.org/2000/svg" width="94px" height="27px" viewBox="0 0 940 270" preserveAspectRatio="xMidYMid meet">
<g id="layer101" fill="#020202" stroke="none">
<path d="M3 254 c-2 -5 -2 -64 -1 -130 l3 -119 468 -3 468 -2 -3 130 -3 131 -464 2 c-319 1 -465 -1 -468 -9z"/>
</g>
<g id="layer102" fill="#2f2f30" stroke="none">
<path d="M390 199 l0 -50 33 3 c25 2 33 8 35 26 4 28 -16 55 -35 48 -7 -3 -13 1 -13 9 0 8 -4 15 -10 15 -5 0 -10 -23 -10 -51z m50 -15 c0 -16 -16 -19 -25 -4 -8 13 4 32 16 25 5 -4 9 -13 9 -21z"/>
<path d="M470 199 l0 -50 33 3 c26 2 33 8 35 30 2 18 -3 30 -16 37 -11 6 -22 7 -26 4 -3 -3 -6 1 -6 10 0 10 -4 17 -10 17 -5 0 -10 -23 -10 -51z m50 -15 c0 -8 -7 -14 -15 -14 -15 0 -21 21 -9 33 10 9 24 -2 24 -19z"/>
<path d="M109 201 c-28 -35 -25 -87 6 -107 13 -8 28 -13 33 -10 5 3 14 -6 20 -19 12 -27 32 -34 32 -12 0 7 -6 19 -12 26 -10 11 -10 12 -1 7 7 -4 22 -2 33 4 17 9 18 14 7 30 -9 16 -9 24 1 40 12 20 2 59 -16 61 -65 6 -86 3 -103 -20z"/>
<path d="M583 223 c-7 -3 -13 -9 -13 -15 0 -6 7 -8 15 -5 23 9 28 -11 5 -23 -11 -6 -20 -19 -20 -30 0 -22 37 -37 53 -21 8 8 5 11 -11 11 -27 0 -28 11 -2 28 11 7 20 19 20 27 0 17 -30 34 -47 28z"/>
<path d="M653 217 c-31 -39 -17 -103 15 -71 13 13 13 17 1 25 -11 7 -12 12 -2 28 14 22 1 38 -14 18z"/>
<path d="M696 214 c-19 -19 -20 -36 -4 -52 17 -17 45 -15 57 6 10 16 10 16 11 0 0 -11 8 -18 20 -18 21 0 27 15 10 25 -5 3 -10 15 -10 26 0 24 -20 26 -21 2 0 -11 -3 -13 -6 -5 -10 24 -40 33 -57 16z m34 -24 c0 -19 -11 -26 -23 -14 -8 8 3 34 14 34 5 0 9 -9 9 -20z"/>
<path d="M825 216 c-26 -19 -16 -61 15 -61 33 0 40 32 8 37 l-23 5 24 10 c19 8 21 11 9 16 -9 3 -24 0 -33 -7z"/>
<path d="M357 86 c-10 -26 -10 -26 28 -26 28 0 35 4 35 20 0 11 -7 20 -15 20 -8 0 -15 -8 -15 -17 0 -15 -1 -15 -13 1 -13 18 -14 18 -20 2z"/>
<path d="M432 70 c0 -19 2 -27 5 -17 2 9 2 25 0 35 -3 9 -5 1 -5 -18z"/>
<path d="M510 69 c0 -27 2 -29 15 -15 8 8 15 22 15 30 0 9 -7 16 -15 16 -10 0 -15 -10 -15 -31z"/>
<path d="M577 93 c-13 -12 -7 -33 8 -33 8 0 15 9 15 20 0 20 -11 26 -23 13z"/>
<path d="M637 93 c-17 -17 -5 -31 28 -31 37 0 51 10 39 30 -5 8 -10 6 -15 -8 -7 -18 -8 -18 -8 1 -1 17 -3 17 -11 5 -6 -10 -10 -11 -10 -2 0 13 -13 16 -23 5z"/>
<path d="M807 93 c-12 -12 -7 -33 7 -33 9 0 14 9 13 20 -1 20 -9 25 -20 13z"/>
</g>
<g id="layer103" fill="#575759" stroke="none">
<path d="M3 255 c-8 -23 0 -25 21 -4 18 17 18 19 2 19 -9 0 -19 -7 -23 -15z"/>
<path d="M916 251 c21 -21 29 -19 21 4 -4 8 -14 15 -23 15 -16 0 -16 -2 2 -19z"/>
<path d="M390 199 l0 -50 33 3 c28 3 32 6 32 33 0 23 -5 31 -22 33 -13 2 -23 10 -23 18 0 8 -4 14 -10 14 -5 0 -10 -23 -10 -51z m50 -15 c0 -8 -7 -14 -15 -14 -15 0 -21 21 -9 33 10 9 24 -2 24 -19z"/>
<path d="M470 199 l0 -50 33 3 c28 3 32 6 32 33 0 23 -5 31 -22 33 -13 2 -23 10 -23 18 0 8 -4 14 -10 14 -5 0 -10 -23 -10 -51z m50 -15 c0 -8 -7 -14 -15 -14 -15 0 -21 21 -9 33 10 9 24 -2 24 -19z"/>
<path d="M106 198 c-23 -33 -20 -84 5 -102 12 -8 27 -12 34 -10 7 3 16 -3 19 -14 8 -23 36 -38 36 -19 0 7 -6 19 -12 26 -8 9 -9 12 -1 7 6 -3 19 -3 28 0 12 5 14 14 10 36 -4 17 -2 35 5 43 8 10 8 19 0 34 -16 31 -102 30 -124 -1z"/>
<path d="M300 217 c0 -21 35 -97 43 -94 13 4 41 86 32 95 -3 3 -10 0 -15 -8 -8 -12 -13 -13 -30 -2 -19 12 -30 15 -30 9z"/>
<path d="M570 210 c0 -5 6 -7 14 -4 23 9 28 -14 6 -26 -11 -6 -20 -19 -20 -29 0 -22 29 -36 44 -21 7 7 5 10 -7 10 -23 0 -21 15 5 32 28 19 18 48 -17 48 -14 0 -25 -4 -25 -10z"/>
<path d="M647 213 c-3 -5 -7 -21 -8 -37 -4 -32 7 -41 31 -26 13 9 13 11 0 20 -12 8 -13 13 -2 30 10 17 10 20 -2 20 -8 0 -17 -3 -19 -7z"/>
<path d="M685 200 c-8 -27 12 -52 39 -48 16 2 21 10 21 33 0 25 -4 31 -27 33 -19 2 -28 -2 -33 -18z m45 -10 c0 -11 -4 -20 -9 -20 -14 0 -23 18 -16 30 10 17 25 11 25 -10z"/>
<path d="M760 185 c0 -28 4 -35 20 -35 21 0 27 15 10 25 -5 3 -10 15 -10 26 0 10 -4 19 -10 19 -5 0 -10 -16 -10 -35z"/>
<path d="M311 83 c-1 -12 4 -25 10 -28 13 -8 14 -7 24 25 7 22 6 23 -8 12 -12 -10 -16 -10 -20 0 -3 7 -6 3 -6 -9z"/>
<path d="M357 86 c-4 -10 -7 -19 -7 -20 0 -1 16 -3 35 -4 29 -2 35 1 35 18 0 11 -7 20 -15 20 -8 0 -15 -8 -15 -17 0 -15 -1 -15 -13 1 -13 18 -14 18 -20 2z"/>
<path d="M452 70 c0 -19 2 -27 5 -17 2 9 2 25 0 35 -3 9 -5 1 -5 -18z"/>
<path d="M470 80 c0 -11 7 -20 15 -20 8 0 15 9 15 20 0 11 -7 20 -15 20 -8 0 -15 -9 -15 -20z"/>
<path d="M510 69 c0 -28 1 -29 16 -14 9 8 13 22 10 30 -10 26 -26 16 -26 -16z"/>
<path d="M552 70 c0 -19 2 -27 5 -17 2 9 2 25 0 35 -3 9 -5 1 -5 -18z"/>
<path d="M577 93 c-13 -12 -7 -33 8 -33 8 0 15 5 15 10 0 6 -6 10 -12 10 -9 0 -8 4 2 10 8 5 10 10 4 10 -6 0 -14 -3 -17 -7z"/>
<path d="M637 93 c-17 -17 -5 -31 28 -31 34 0 54 13 40 26 -3 3 -10 0 -15 -8 -8 -12 -10 -11 -11 5 0 11 -3 14 -6 7 -3 -9 -9 -10 -17 -3 -7 6 -16 8 -19 4z"/>
<path d="M737 93 c-11 -10 -8 -43 3 -43 6 0 10 11 10 25 0 26 -2 29 -13 18z"/>
<path d="M761 72 c-1 -30 1 -32 14 -18 8 8 15 23 14 33 0 16 -1 16 -8 -2 l-8 -20 -5 20 c-4 13 -6 9 -7 -13z"/>
<path d="M807 93 c-13 -12 -7 -33 8 -33 8 0 15 5 15 10 0 6 -6 10 -12 10 -9 0 -8 4 2 10 8 5 10 10 4 10 -6 0 -14 -3 -17 -7z"/>
</g>
<g id="layer104" fill="#808182" stroke="none">
<path d="M392 203 c3 -46 4 -48 33 -48 27 0 30 3 30 30 0 23 -5 31 -22 33 -13 2 -23 10 -23 18 0 8 -5 14 -11 14 -6 0 -9 -19 -7 -47z m48 -13 c0 -11 -7 -20 -15 -20 -15 0 -21 21 -8 33 12 13 23 7 23 -13z"/>
<path d="M470 201 c0 -48 1 -50 26 -48 48 4 61 67 14 67 -11 0 -20 7 -20 15 0 8 -4 15 -10 15 -5 0 -10 -22 -10 -49z m50 -17 c0 -8 -7 -14 -15 -14 -15 0 -21 21 -9 33 10 9 24 -2 24 -19z"/>
<path d="M105 190 c-18 -35 -19 -72 -3 -88 7 -7 38 -12 70 -12 l58 0 -6 30 c-4 17 -1 36 5 44 9 11 9 19 -1 35 -10 17 -23 21 -60 21 -42 0 -49 -3 -63 -30z"/>
<path d="M317 175 c8 -25 20 -45 27 -45 12 0 39 80 30 89 -2 3 -11 -4 -19 -15 -14 -18 -16 -18 -29 -1 -22 29 -26 19 -9 -28z"/>
<path d="M570 209 c0 -5 5 -7 10 -4 6 3 15 3 21 -1 8 -5 4 -13 -11 -24 -28 -21 -21 -51 12 -49 17 1 18 2 6 6 -24 6 -23 18 4 35 28 19 18 48 -17 48 -14 0 -25 -5 -25 -11z"/>
<path d="M647 213 c-10 -9 -9 -73 1 -73 17 1 34 18 23 24 -15 10 -14 43 2 49 8 4 6 6 -4 6 -9 1 -19 -2 -22 -6z"/>
<path d="M691 206 c-18 -22 4 -58 32 -54 31 4 32 62 1 66 -11 2 -26 -4 -33 -12z m39 -15 c0 -23 -16 -36 -25 -21 -9 14 1 40 15 40 5 0 10 -9 10 -19z"/>
<path d="M762 188 c2 -21 9 -32 21 -34 9 -1 17 2 17 7 0 5 -4 9 -10 9 -5 0 -10 11 -10 25 0 14 -5 25 -11 25 -6 0 -9 -14 -7 -32z"/>
<path d="M814 206 c-3 -8 -4 -23 -2 -33 4 -24 51 -25 56 0 2 12 -3 17 -17 17 -28 0 -27 17 2 23 19 4 18 4 -6 6 -16 0 -30 -5 -33 -13z"/>
<path d="M516 93 c-13 -13 -6 -42 9 -37 16 7 20 30 6 38 -4 3 -11 3 -15 -1z"/>
<path d="M574 89 c-8 -13 13 -36 23 -24 5 4 2 10 -5 12 -6 3 -10 9 -6 14 3 5 3 9 0 9 -3 0 -8 -5 -12 -11z"/>
<path d="M636 93 c-12 -12 -6 -33 9 -33 8 0 15 6 15 14 0 17 -14 28 -24 19z"/>
<path d="M807 93 c-13 -12 -7 -33 8 -33 8 0 15 5 15 10 0 6 -5 10 -11 10 -5 0 -7 5 -4 10 7 11 2 13 -8 3z"/>
<path d="M315 72 c3 -7 5 -16 5 -18 0 -13 18 -1 23 15 3 15 0 19 -14 18 -12 -1 -17 -7 -14 -15z"/>
<path d="M357 77 c-3 -8 1 -14 9 -14 8 0 14 6 14 14 0 17 -16 17 -23 0z"/>
<path d="M393 73 c0 -7 6 -13 14 -13 7 0 13 6 13 13 0 8 -6 14 -13 14 -8 0 -14 -6 -14 -14z"/>
<path d="M470 73 c0 -8 5 -13 12 -11 18 6 21 25 3 25 -8 0 -15 -7 -15 -14z"/>
<path d="M671 78 c-1 -10 6 -18 14 -18 8 0 15 8 15 18 0 13 -2 14 -9 3 -7 -11 -9 -11 -14 0 -4 10 -6 9 -6 -3z"/>
<path d="M175 60 c20 -22 31 -20 22 5 -4 8 -14 15 -23 15 -16 0 -16 -2 1 -20z"/>
</g>
<g id="layer105" fill="#c1c0c1" stroke="none">
<path d="M5 259 c-11 -17 -2 -18 19 -3 17 12 17 14 4 14 -9 0 -20 -5 -23 -11z"/>
<path d="M916 256 c21 -15 30 -14 19 3 -3 6 -14 11 -23 11 -13 0 -13 -2 4 -14z"/>
<path d="M401 209 c-1 -50 18 -70 46 -48 21 18 12 53 -14 57 -12 2 -24 11 -26 20 -3 9 -5 -4 -6 -29z m42 -13 c6 -16 -16 -40 -26 -29 -4 3 -7 15 -7 25 0 21 25 24 33 4z"/>
<path d="M478 244 c-5 -4 -8 -24 -8 -45 0 -30 4 -38 22 -43 13 -3 29 0 36 8 19 18 6 56 -18 56 -10 0 -20 7 -22 16 -2 9 -6 12 -10 8z m40 -56 c-2 -13 -7 -23 -13 -23 -5 0 -11 10 -13 23 -2 15 2 22 13 22 11 0 15 -7 13 -22z"/>
<path d="M103 182 c-11 -25 -12 -44 -6 -62 8 -23 13 -25 68 -25 59 0 63 3 50 36 -3 9 1 23 9 31 13 13 13 18 1 35 -10 15 -26 20 -60 21 -45 0 -47 -2 -62 -36z"/>
<path d="M317 175 c21 -64 32 -60 57 23 5 13 3 22 -3 22 -6 0 -11 -7 -11 -15 0 -8 -7 -15 -15 -15 -9 0 -18 7 -21 15 -4 8 -10 15 -14 15 -5 0 -2 -20 7 -45z"/>
<path d="M588 213 c28 -5 29 -29 1 -38 -28 -9 -20 -40 11 -42 15 -1 18 0 8 3 -23 7 -23 16 3 37 16 15 18 21 9 33 -7 8 -22 13 -34 13 -20 -2 -20 -2 2 -6z"/>
<path d="M649 195 c-1 -14 -2 -29 -3 -35 -1 -5 3 -11 8 -12 5 -2 9 14 10 35 1 41 -13 52 -15 12z"/>
<path d="M697 214 c-13 -13 -7 -52 9 -58 22 -9 46 13 42 38 -3 21 -37 34 -51 20z m40 -20 c1 -5 -2 -16 -7 -24 -12 -20 -35 2 -26 25 6 17 27 16 33 -1z"/>
<path d="M771 194 c0 -20 5 -34 14 -38 8 -3 15 -1 15 4 0 6 -4 10 -9 10 -5 0 -12 12 -14 28 -4 26 -4 26 -6 -4z"/>
<path d="M817 213 c-12 -11 -8 -40 8 -53 12 -10 18 -10 30 0 22 18 18 28 -12 32 l-28 4 25 11 c23 11 23 12 4 12 -11 1 -24 -2 -27 -6z"/>
<path d="M310 80 c0 -6 5 -10 11 -10 5 0 7 -5 3 -12 -4 -7 -3 -8 4 -4 16 10 15 23 -3 30 -8 3 -15 1 -15 -4z"/>
<path d="M511 73 c-1 -16 3 -21 14 -17 8 4 15 14 15 23 0 13 -2 13 -9 2 -7 -11 -9 -11 -14 0 -3 8 -6 5 -6 -8z"/>
<path d="M761 73 c-1 -16 3 -21 14 -17 8 4 15 14 15 23 0 13 -2 13 -9 2 -7 -11 -9 -11 -14 0 -3 8 -6 5 -6 -8z"/>
<path d="M172 69 c2 -7 10 -15 17 -17 8 -3 12 1 9 9 -2 7 -10 15 -17 17 -8 3 -12 -1 -9 -9z"/>
</g>
<g id="layer106" fill="#fcfcfc" stroke="none">
<path d="M403 200 c0 -25 2 -35 4 -22 2 12 2 32 0 45 -2 12 -4 2 -4 -23z"/>
<path d="M113 193 c-18 -27 -20 -67 -4 -86 7 -9 30 -14 61 -13 54 1 55 2 44 29 -4 10 -1 29 6 43 18 33 2 49 -51 50 -32 0 -44 -5 -56 -23z"/>
<path d="M311 210 c0 -8 4 -24 9 -35 5 -13 9 -14 9 -5 0 8 -4 24 -9 35 -5 13 -9 14 -9 5z"/>
<path d="M434 208 c13 -10 17 -21 12 -34 -6 -15 -5 -17 6 -6 14 14 2 43 -23 50 -8 2 -5 -2 5 -10z"/>
<path d="M588 213 c12 -2 22 -9 22 -15 0 -5 -10 -18 -22 -28 -17 -14 -20 -21 -12 -30 7 -7 20 -10 30 -7 16 4 15 5 -3 6 -29 1 -29 14 -1 33 27 18 18 49 -14 47 l-23 -2 23 -4z"/>
<path d="M650 180 c0 -22 2 -40 4 -40 2 0 6 18 8 40 2 22 0 40 -4 40 -5 0 -8 -18 -8 -40z"/>
<path d="M697 214 c-10 -10 -9 -42 2 -48 4 -3 6 6 3 20 -4 21 -1 25 14 22 12 -2 19 -12 18 -26 0 -16 2 -20 10 -12 7 7 7 16 0 28 -12 19 -36 27 -47 16z"/>
<path d="M770 190 c0 -16 4 -30 8 -30 5 0 7 14 4 30 -2 17 -6 30 -8 30 -2 0 -4 -13 -4 -30z"/>
<path d="M810 184 c0 -7 5 -16 12 -20 6 -4 8 -3 4 4 -4 6 5 12 21 14 28 3 28 4 -4 9 -23 4 -33 2 -33 -7z"/>
</g>


</svg>