<!DOCTYPE svg PUBLIC "-//W3C//DTD SVG 20010904//EN" "http://www.w3.org/TR/2001/REC-SVG-20010904/DTD/svg10.dtd">
<svg version="1.0" xmlns="http://www.w3.org/2000/svg" width="94px" height="27px" viewBox="0 0 940 270" preserveAspectRatio="xMidYMid meet">
<g id="layer101" fill="#020202" stroke="none">
<path d="M13 254 c-2 -5 -2 -64 -1 -130 l3 -119 462 -3 463 -2 0 132 0 133 -461 0 c-315 0 -463 -3 -466 -11z"/>
</g>
<g id="layer102" fill="#404145" stroke="none">
<path d="M13 255 c-8 -23 0 -25 21 -4 18 17 18 19 2 19 -9 0 -19 -7 -23 -15z"/>
<path d="M524 238 c-4 -6 1 -17 11 -25 15 -10 15 -13 4 -13 -8 0 -20 5 -26 11 -7 7 -17 8 -30 1 -12 -7 -24 -7 -36 0 -12 6 -22 6 -32 -2 -9 -7 -15 -8 -20 0 -9 14 -58 13 -73 -2 -15 -15 -15 -51 0 -66 13 -13 68 -17 68 -4 0 4 -12 8 -27 7 -31 0 -43 26 -23 50 17 20 44 20 36 0 -3 -8 0 -15 6 -15 6 0 19 -7 29 -16 13 -11 22 -13 36 -6 12 7 25 7 36 0 12 -6 22 -6 32 2 10 8 19 8 34 1 30 -16 34 -14 28 19 -4 16 -2 32 3 35 5 3 7 12 3 20 -6 18 -49 20 -59 3z m46 -8 c0 -5 -7 -10 -15 -10 -8 0 -15 5 -15 10 0 6 7 10 15 10 8 0 15 -4 15 -10z m-128 -52 c-15 -15 -26 -4 -18 18 5 13 9 15 18 6 9 -9 9 -15 0 -24z m68 8 c0 -8 -4 -17 -9 -21 -12 -7 -24 12 -16 25 9 15 25 12 25 -4z"/>
<path d="M700 201 c0 -42 21 -61 46 -40 11 9 14 7 14 -10 0 -11 5 -21 10 -21 6 0 10 13 10 29 0 25 3 28 22 23 20 -5 21 -6 3 -12 -12 -4 -15 -9 -8 -13 14 -9 45 2 59 21 9 13 12 11 18 -9 4 -13 9 -19 12 -13 8 19 -25 84 -44 84 -13 0 -14 -2 -3 -9 10 -6 11 -17 5 -37 l-8 -29 -4 28 c-3 25 -7 28 -35 25 -18 -2 -35 -6 -38 -11 -3 -4 -15 2 -27 13 -29 27 -32 26 -32 -19z m40 -16 c0 -8 -4 -15 -10 -15 -5 0 -10 7 -10 15 0 8 5 15 10 15 6 0 10 -7 10 -15z"/>
<path d="M90 129 l0 -90 80 42 c44 24 80 46 80 50 0 7 -141 89 -154 89 -3 0 -6 -41 -6 -91z"/>
<path d="M625 210 c-3 -5 -12 -7 -20 -3 -12 4 -15 -5 -15 -41 0 -25 5 -46 10 -46 6 0 10 12 10 26 0 23 2 25 15 14 12 -10 19 -10 27 -2 9 9 7 16 -8 27 -18 13 -18 14 -1 15 10 0 15 5 12 10 -8 13 -22 13 -30 0z"/>
<path d="M325 92 c-3 -3 -5 -13 -5 -23 0 -19 26 -33 35 -19 4 6 -1 10 -9 10 -9 0 -16 4 -16 10 0 5 19 3 41 -5 52 -19 49 -20 49 11 0 22 -2 25 -15 14 -8 -7 -15 -8 -15 -3 0 10 -56 14 -65 5z"/>
<path d="M441 70 c0 -23 2 -30 8 -22 4 8 12 12 16 10 4 -1 10 8 11 22 4 23 3 24 -10 7 -14 -18 -14 -18 -19 0 -3 10 -5 2 -6 -17z"/>
<path d="M507 93 c-17 -17 -5 -31 28 -31 29 0 35 3 34 22 0 20 -1 20 -9 1 l-9 -20 0 20 c-1 17 -3 17 -11 5 -6 -10 -10 -11 -10 -2 0 13 -13 16 -23 5z"/>
</g>
<g id="layer103" fill="#707072" stroke="none">
<path d="M530 236 c0 -8 5 -18 10 -21 6 -4 8 -11 4 -16 -4 -6 -10 -6 -19 1 -9 8 -14 5 -17 -13 -4 -20 0 -23 33 -24 l37 -2 -1 42 c-2 35 -6 43 -24 45 -15 2 -23 -2 -23 -12z m40 -6 c0 -5 -7 -10 -15 -10 -8 0 -15 5 -15 10 0 6 7 10 15 10 8 0 15 -4 15 -10z"/>
<path d="M701 203 c-1 -39 1 -43 23 -43 13 0 27 6 29 13 3 6 6 2 6 -10 1 -31 21 -29 21 1 0 20 4 23 22 18 21 -5 21 -6 2 -13 -18 -7 -17 -8 4 -8 17 -1 22 5 22 23 0 13 -6 26 -14 29 -20 8 -56 -3 -56 -17 0 -6 -5 -3 -11 7 -5 9 -16 17 -24 17 -7 0 -16 6 -18 13 -3 6 -6 -7 -6 -30z m39 -18 c0 -8 -4 -15 -9 -15 -13 0 -22 16 -14 24 11 11 23 6 23 -9z"/>
<path d="M839 231 c9 -6 11 -18 6 -42 -7 -32 -6 -33 9 -14 14 18 15 18 16 3 0 -10 5 -18 10 -18 6 0 4 15 -5 36 -8 20 -15 38 -15 40 0 2 -8 4 -17 4 -14 0 -15 -2 -4 -9z"/>
<path d="M90 135 c0 -55 4 -85 11 -85 15 0 149 73 149 82 0 3 -36 25 -80 47 l-80 42 0 -86z"/>
<path d="M328 210 c-21 -13 -24 -50 -6 -68 13 -13 68 -17 68 -4 0 4 -12 8 -27 7 -22 0 -29 5 -31 24 -4 24 11 41 37 41 8 0 11 -6 7 -16 -4 -10 -1 -14 6 -11 7 2 18 -3 24 -11 9 -13 12 -11 16 11 4 19 1 26 -11 26 -9 0 -27 2 -41 6 -14 3 -33 0 -42 -5z"/>
<path d="M444 184 c-2 -25 11 -33 19 -11 4 10 6 10 6 0 2 -24 16 -13 16 12 0 14 -3 25 -7 25 -5 0 -8 -5 -8 -11 0 -8 -4 -8 -12 -1 -10 8 -13 4 -14 -14z"/>
<path d="M590 168 c0 -21 5 -38 10 -38 6 0 10 9 10 21 0 11 5 17 10 14 6 -3 10 3 10 14 0 11 8 22 18 24 9 2 0 4 -20 4 -37 0 -38 -1 -38 -39z"/>
<path d="M333 93 c-7 -3 -13 -13 -13 -24 0 -13 7 -19 23 -18 16 1 18 2 5 6 -10 2 -18 8 -18 13 0 5 18 3 40 -5 22 -8 40 -13 41 -12 0 1 3 13 5 27 4 19 2 22 -8 12 -16 -16 -31 -16 -22 1 6 9 5 9 -7 0 -9 -7 -20 -9 -25 -4 -5 5 -15 6 -21 4z"/>
<path d="M467 93 c-4 -3 -7 -15 -7 -26 0 -25 13 -14 17 13 3 21 1 24 -10 13z"/>
<path d="M506 93 c-12 -12 -6 -33 9 -33 8 0 15 6 15 14 0 17 -14 28 -24 19z"/>
<path d="M541 83 c-1 -14 5 -23 14 -23 8 0 15 8 15 18 0 14 -2 14 -9 3 -7 -11 -10 -10 -14 5 -4 16 -5 16 -6 -3z"/>
</g>
<g id="layer104" fill="#bc3e68" stroke="none">
<path d="M90 136 c0 -47 3 -86 8 -86 11 -1 152 74 152 81 0 3 -36 24 -80 48 l-80 42 0 -85z"/>
</g>
<g id="layer105" fill="#a1923e" stroke="none">
<path d="M90 137 c0 -56 4 -87 11 -87 6 0 38 16 70 35 33 19 64 35 70 35 5 0 9 4 9 9 0 15 -41 24 -53 12 -8 -8 -24 2 -59 36 l-48 47 0 -87z"/>
</g>
<g id="layer106" fill="#688d9e" stroke="none">
<path d="M90 137 c0 -55 4 -87 11 -87 6 0 42 19 81 41 59 34 68 43 54 51 -10 5 -24 7 -33 4 -13 -5 -13 -9 -2 -24 7 -9 -15 10 -49 43 l-62 59 0 -87z"/>
</g>
<g id="layer107" fill="#3ba6b8" stroke="none">
<path d="M90 130 c0 -44 2 -80 5 -80 9 0 119 57 139 73 19 14 19 15 -2 21 -31 10 -46 -2 -30 -22 7 -10 -13 7 -44 36 -31 28 -59 52 -62 52 -3 0 -6 -36 -6 -80z"/>
</g>
<g id="layer108" fill="#969596" stroke="none">
<path d="M849 229 c5 -6 7 -19 4 -28 -5 -13 -3 -14 8 -3 11 10 10 15 -4 27 -9 8 -13 10 -8 4z"/>
<path d="M700 197 c0 -20 4 -37 8 -37 9 0 7 58 -2 67 -3 4 -6 -10 -6 -30z"/>
<path d="M326 204 c-19 -18 -20 -33 -5 -54 8 -12 9 -10 4 7 -4 15 1 29 14 42 12 12 17 21 12 21 -5 0 -17 -7 -25 -16z"/>
<path d="M403 194 c-3 -8 -2 -19 3 -24 5 -5 10 1 10 16 2 27 -4 31 -13 8z"/>
<path d="M508 186 c-3 -14 -1 -26 3 -26 5 0 9 5 9 11 0 8 4 8 13 1 10 -8 13 -6 14 9 1 11 -3 17 -9 13 -6 -4 -14 -1 -18 6 -5 8 -9 3 -12 -14z"/>
<path d="M590 170 c0 -22 2 -40 4 -40 2 0 6 18 8 40 2 22 0 40 -4 40 -5 0 -8 -18 -8 -40z"/>
<path d="M738 185 c-3 -14 -1 -25 3 -25 5 0 9 11 9 25 0 14 -2 25 -4 25 -2 0 -6 -11 -8 -25z"/>
<path d="M785 199 c-4 -6 2 -13 14 -16 11 -3 18 -9 15 -14 -3 -5 0 -9 5 -9 6 0 11 11 11 25 0 14 -5 25 -11 25 -5 0 -7 -4 -4 -10 3 -5 -1 -10 -10 -10 -9 0 -13 5 -10 10 3 6 4 10 1 10 -3 0 -8 -5 -11 -11z"/>
<path d="M501 78 c-1 -10 6 -18 14 -18 8 0 15 8 15 18 0 13 -2 14 -9 3 -7 -11 -9 -11 -14 0 -4 10 -6 9 -6 -3z"/>
<path d="M541 78 c-1 -10 6 -18 14 -18 8 0 15 8 15 18 0 13 -2 14 -9 3 -7 -11 -9 -11 -14 0 -4 10 -6 9 -6 -3z"/>
</g>
<g id="layer109" fill="#4dd0c5" stroke="none">
<path d="M90 170 c0 -33 4 -40 20 -41 71 -5 76 -1 44 32 -16 17 -37 35 -46 40 -16 9 -18 5 -18 -31z"/>
</g>
<g id="layer110" fill="#f9a072" stroke="none">
<path d="M160 104 l-45 -46 45 22 c75 38 93 52 78 61 -23 15 -33 10 -78 -37z"/>
</g>
<g id="layer111" fill="#a0d49b" stroke="none">
<path d="M149 94 l-34 -36 45 22 c56 28 53 25 37 38 -11 9 -21 4 -48 -24z"/>
</g>
<g id="layer112" fill="#c9c9ca" stroke="none">
<path d="M15 259 c-11 -17 -2 -18 19 -3 17 12 17 14 4 14 -9 0 -20 -5 -23 -11z"/>
<path d="M568 228 c-4 -36 -3 -68 3 -68 3 0 6 18 6 40 0 38 -5 55 -9 28z"/>
<path d="M315 190 c-3 -11 -1 -28 5 -37 11 -17 11 -17 6 0 -3 10 -1 27 4 38 7 12 7 19 1 19 -5 0 -12 -9 -16 -20z"/>
<path d="M593 170 c0 -25 2 -35 4 -22 2 12 2 32 0 45 -2 12 -4 2 -4 -23z"/>
<path d="M815 200 c3 -5 -2 -10 -12 -11 -14 0 -15 -2 -3 -6 8 -3 18 -11 22 -17 4 -6 8 1 8 17 0 15 -5 27 -11 27 -5 0 -7 -4 -4 -10z"/>
</g>


</svg>