<!DOCTYPE svg PUBLIC "-//W3C//DTD SVG 20010904//EN" "http://www.w3.org/TR/2001/REC-SVG-20010904/DTD/svg10.dtd">
<svg version="1.0" xmlns="http://www.w3.org/2000/svg" width="95px" height="27px" viewBox="0 0 950 270" preserveAspectRatio="xMidYMid meet">
<g id="layer101" fill="#020202" stroke="none">
<path d="M13 254 c-2 -5 -2 -64 -1 -130 l3 -119 468 -3 468 -2 -3 130 -3 131 -464 2 c-319 1 -465 -1 -468 -9z"/>
</g>
<g id="layer102" fill="#3c3c3e" stroke="none">
<path d="M13 255 c-8 -23 0 -25 21 -4 18 17 18 19 2 19 -9 0 -19 -7 -23 -15z"/>
<path d="M145 217 l-50 -12 -3 -48 c-3 -41 0 -49 16 -54 13 -3 18 -11 15 -23 -7 -26 30 -45 57 -28 11 7 20 16 20 19 0 4 11 10 25 13 25 6 26 9 23 74 -3 63 -4 67 -28 69 -14 1 -47 -4 -75 -10z"/>
<path d="M473 212 c-15 -2 -23 -10 -23 -24 0 -12 -3 -18 -7 -14 -5 4 -8 13 -8 19 0 7 -8 13 -17 15 -13 3 -18 -3 -18 -21 0 -18 6 -26 24 -29 14 -3 30 0 35 5 8 8 18 3 36 -13 l25 -23 0 22 c0 18 3 21 13 13 16 -13 57 -4 57 12 0 6 5 4 10 -4 9 -13 11 -13 20 0 5 8 10 10 10 4 0 -15 38 -25 46 -13 3 5 -1 9 -8 9 -10 0 -10 2 1 9 15 10 8 41 -10 41 -6 0 -9 -7 -6 -15 4 -8 2 -17 -3 -20 -6 -4 -10 1 -10 9 0 12 -8 15 -32 12 -18 -2 -39 1 -46 7 -9 7 -16 7 -24 -1 -6 -6 -18 -8 -27 -4 -9 5 -26 6 -38 4z m87 -27 c0 -8 -4 -15 -10 -15 -5 0 -10 7 -10 15 0 8 5 15 10 15 6 0 10 -7 10 -15z"/>
<path d="M715 210 c-3 -4 0 -10 6 -12 8 -3 8 -10 -2 -26 -12 -19 -12 -24 1 -32 9 -5 19 -5 26 0 6 6 14 7 17 3 4 -3 7 -2 8 3 0 5 2 24 3 41 4 40 -9 35 -17 -7 -4 -19 -13 -30 -23 -30 -16 0 -16 1 -1 18 10 10 17 23 17 29 0 14 -28 25 -35 13z"/>
<path d="M792 208 c-7 -7 -12 -17 -12 -24 0 -18 28 -37 42 -28 7 5 20 7 29 6 13 -2 15 3 11 23 -3 17 -9 24 -18 21 -7 -3 -16 -1 -19 4 -8 13 -19 12 -33 -2z m28 -23 c0 -8 -4 -15 -10 -15 -5 0 -10 7 -10 15 0 8 5 15 10 15 6 0 10 -7 10 -15z"/>
<path d="M883 213 c-17 -6 -17 -38 0 -52 10 -8 17 -7 25 1 17 17 15 28 -5 28 -14 0 -15 2 -4 9 15 10 2 21 -16 14z"/>
<path d="M313 175 c-12 -39 2 -49 17 -12 l9 22 0 -22 c1 -27 16 -30 30 -5 10 16 10 16 11 0 0 -12 8 -18 22 -18 19 0 20 1 6 13 -9 6 -18 21 -20 31 -4 25 -28 33 -28 9 -1 -17 -1 -17 -11 0 -15 26 -24 21 -36 -18z"/>
<path d="M314 111 c-2 -2 -4 -15 -4 -28 0 -22 19 -31 34 -15 12 11 130 10 138 -2 5 -8 8 -8 8 0 0 12 79 12 98 0 10 -6 13 -1 10 20 -3 29 -4 29 -67 27 -41 -1 -67 -6 -72 -15 -5 -7 -9 -8 -9 -2 0 6 -12 11 -27 12 -16 0 -31 1 -35 2 -15 5 -70 5 -74 1z"/>
<path d="M660 102 c-5 -10 -10 -12 -10 -4 0 25 -30 12 -30 -14 0 -21 3 -25 18 -19 9 4 37 8 62 9 36 1 45 5 48 21 3 17 1 17 -7 5 -10 -13 -11 -13 -11 0 0 13 -1 13 -10 0 -5 -8 -10 -10 -10 -4 0 20 -39 24 -50 6z"/>
<path d="M940 21 c0 -5 -8 -12 -17 -14 -14 -4 -12 -5 5 -6 13 -1 22 5 22 14 0 8 -2 15 -5 15 -3 0 -5 -4 -5 -9z"/>
</g>
<g id="layer103" fill="#5f5f61" stroke="none">
<path d="M13 255 c-8 -23 0 -24 20 -3 14 15 15 18 2 18 -9 0 -18 -7 -22 -15z"/>
<path d="M926 251 c21 -21 29 -19 21 4 -4 8 -14 15 -23 15 -16 0 -16 -2 2 -19z"/>
<path d="M150 216 l-55 -11 0 -50 c0 -47 2 -50 26 -53 17 -2 29 -11 32 -23 4 -15 2 -19 -9 -15 -8 3 -14 1 -14 -4 0 -11 15 -12 48 -4 27 8 30 24 2 19 -11 -2 -20 1 -20 7 0 6 12 8 30 5 52 -11 60 -2 60 68 0 48 -4 64 -16 69 -9 3 -19 5 -22 5 -4 -1 -32 -6 -62 -13z m40 -46 c0 -5 -12 -10 -27 -11 -26 -1 -27 -1 -5 -7 20 -6 32 -22 17 -22 -3 0 -16 0 -29 0 -18 0 -23 5 -23 25 0 22 4 25 33 25 19 0 34 -4 34 -10z"/>
<path d="M320 198 c0 -7 -3 -24 -6 -38 l-5 -25 14 24 14 23 7 -23 6 -24 15 25 c14 25 14 25 15 3 0 -13 6 -23 14 -23 11 0 11 6 -2 35 -18 40 -32 45 -33 13 l0 -23 -11 23 c-12 24 -28 30 -28 10z"/>
<path d="M421 188 c-1 -22 4 -28 19 -28 11 0 20 5 20 10 0 11 40 -8 52 -25 4 -5 8 1 8 15 0 16 3 21 8 12 9 -14 62 -13 62 1 0 5 6 4 14 -2 11 -9 15 -9 19 1 4 10 6 10 6 1 1 -7 13 -13 29 -13 19 0 23 3 13 9 -9 6 -10 11 -2 15 17 11 13 26 -6 26 -14 0 -15 -2 -5 -9 11 -7 11 -9 -1 -14 -9 -3 -18 1 -22 11 -5 13 -8 14 -14 3 -7 -10 -10 -10 -16 -1 -6 9 -10 9 -17 -1 -7 -11 -11 -11 -15 -1 -2 6 -13 12 -24 12 -10 0 -19 -6 -19 -12 0 -10 -2 -10 -9 0 -12 20 -65 11 -72 -13 -6 -19 -7 -18 -17 5 l-11 25 0 -27z m139 -3 c0 -8 -4 -15 -10 -15 -5 0 -10 7 -10 15 0 8 5 15 10 15 6 0 10 -7 10 -15z"/>
<path d="M723 201 c17 -6 17 -8 3 -20 -23 -19 -20 -41 7 -40 19 0 20 1 4 8 -17 6 -17 8 -3 20 23 19 20 41 -6 40 -20 0 -21 -1 -5 -8z"/>
<path d="M787 197 c-3 -8 -2 -19 2 -25 9 -15 123 -10 129 6 2 6 -4 12 -15 12 -15 0 -16 2 -3 10 13 8 12 10 -3 10 -10 0 -22 -10 -27 -22 -9 -22 -9 -23 -15 -3 -7 24 -60 33 -68 12z m33 -12 c0 -8 -4 -15 -10 -15 -5 0 -10 7 -10 15 0 8 5 15 10 15 6 0 10 -7 10 -15z"/>
<path d="M310 84 c0 -25 18 -32 36 -14 6 6 39 12 72 13 50 2 62 0 62 -13 0 -12 2 -12 9 -2 4 7 22 14 40 14 17 1 34 5 37 10 3 4 11 8 17 8 8 0 8 -3 -1 -9 -10 -6 -10 -10 3 -21 13 -11 15 -9 15 13 0 23 -3 25 -50 24 -31 0 -46 -4 -38 -8 7 -5 10 -9 5 -9 -4 0 -16 6 -27 13 -17 10 -22 9 -30 -3 -9 -13 -10 -13 -10 0 0 13 -1 13 -10 0 -5 -8 -10 -10 -10 -5 0 6 -27 11 -60 11 -57 1 -60 0 -60 -22z m30 1 c0 -8 -4 -15 -10 -15 -5 0 -10 7 -10 15 0 8 5 15 10 15 6 0 10 -7 10 -15z"/>
<path d="M660 92 c0 -14 2 -15 10 -2 5 8 10 10 10 5 0 -6 16 -12 35 -13 28 -2 35 1 35 15 0 15 -2 16 -10 3 -9 -13 -10 -13 -10 0 0 13 -1 13 -10 0 -5 -8 -10 -10 -10 -5 0 6 -11 12 -25 13 -18 1 -25 -3 -25 -16z"/>
</g>
<g id="layer104" fill="#838384" stroke="none">
<path d="M175 219 c-22 -5 -50 -11 -62 -14 -20 -5 -23 -12 -23 -50 0 -48 0 -48 85 -64 33 -6 54 -6 62 1 26 21 11 142 -16 137 -4 -1 -24 -5 -46 -10z m12 -66 c-1 -16 -8 -28 -15 -27 -6 1 -20 2 -31 3 -13 1 -18 9 -18 26 0 22 4 25 33 25 30 0 33 -3 31 -27z"/>
<path d="M321 187 c-15 -39 -13 -57 3 -28 l13 23 7 -23 6 -24 14 24 c13 23 13 23 19 2 3 -11 11 -21 19 -21 9 0 9 3 2 8 -6 4 -14 20 -18 35 -7 29 -26 28 -26 -1 -1 -12 -5 -10 -15 8 l-13 25 -11 -28z"/>
<path d="M421 188 c-1 -22 4 -28 19 -28 15 0 20 6 19 28 -2 23 -2 24 -6 5 -2 -13 -8 -23 -13 -23 -5 0 -11 10 -13 23 -4 19 -4 18 -6 -5z"/>
<path d="M474 195 c-7 -18 3 -35 21 -35 7 0 16 -6 18 -12 3 -7 6 4 6 25 1 31 -2 37 -19 37 -11 0 -23 -7 -26 -15z m36 -10 c0 -8 -7 -15 -15 -15 -8 0 -15 7 -15 15 0 8 7 15 15 15 8 0 15 -7 15 -15z"/>
<path d="M530 185 c0 -22 4 -25 30 -23 33 2 37 12 16 34 -23 23 -46 17 -46 -11z m32 0 c0 -5 -5 -11 -11 -13 -6 -2 -11 4 -11 13 0 9 5 15 11 13 6 -2 11 -8 11 -13z"/>
<path d="M590 203 c0 -5 7 -18 15 -29 10 -14 14 -15 15 -4 0 11 3 11 12 2 7 -7 21 -12 33 -12 15 0 17 2 6 9 -9 6 -10 11 -2 15 17 11 13 26 -6 25 -13 0 -14 -2 -4 -6 11 -4 11 -7 0 -13 -8 -5 -18 -2 -26 8 -9 13 -12 13 -13 3 0 -11 -3 -11 -15 -1 -8 7 -15 8 -15 3z"/>
<path d="M723 203 c17 -4 17 -6 2 -23 -17 -19 -13 -40 8 -40 7 0 6 4 -3 10 -13 8 -12 11 4 23 21 16 14 38 -12 36 -15 -1 -14 -2 1 -6z"/>
<path d="M760 190 c0 -11 0 -22 0 -25 0 -3 3 -6 7 -7 3 -2 7 9 7 25 1 15 -2 27 -6 27 -4 0 -8 -9 -8 -20z"/>
<path d="M788 198 c-8 -21 2 -38 23 -38 10 0 19 6 19 13 0 8 3 9 8 1 9 -14 70 -16 78 -3 3 6 -4 13 -17 16 -22 6 -22 7 -3 14 18 7 18 8 1 8 -11 1 -21 -8 -24 -19 -7 -27 -23 -25 -23 3 0 18 -2 19 -10 7 -6 -10 -10 -11 -10 -2 0 6 -9 12 -19 12 -10 0 -21 -6 -23 -12z m32 -13 c0 -8 -4 -15 -10 -15 -5 0 -10 7 -10 15 0 8 5 15 10 15 6 0 10 -7 10 -15z"/>
<path d="M310 90 c0 -10 4 -22 10 -25 12 -7 53 19 43 28 -3 4 -1 7 5 7 7 0 12 -4 12 -10 0 -13 43 -7 47 7 2 5 -3 10 -12 10 -8 0 -15 -4 -15 -9 0 -5 -6 -6 -12 -1 -7 4 -28 8 -45 10 -26 1 -33 -2 -33 -17z m30 -5 c0 -8 -4 -15 -10 -15 -5 0 -10 7 -10 15 0 8 5 15 10 15 6 0 10 -7 10 -15z"/>
<path d="M493 103 c-7 -3 -13 -12 -12 -21 0 -10 3 -12 5 -5 3 7 11 10 19 7 7 -3 16 0 20 6 6 9 9 9 15 -1 7 -10 11 -10 24 1 9 7 19 10 23 6 3 -3 1 -6 -6 -6 -7 0 -9 -4 -6 -10 10 -17 25 -11 25 9 0 16 -7 19 -47 18 -27 0 -54 -2 -60 -4z"/>
<path d="M661 92 c0 -10 3 -12 6 -4 2 6 9 12 14 12 6 0 8 -4 5 -8 -3 -5 1 -9 9 -9 26 0 16 23 -10 25 -18 1 -25 -3 -24 -16z"/>
</g>
<g id="layer105" fill="#b3b2b3" stroke="none">
<path d="M926 256 c21 -15 30 -14 19 3 -3 6 -14 11 -23 11 -13 0 -13 -2 4 -14z"/>
<path d="M165 215 c-5 -2 -22 -6 -37 -9 -25 -6 -28 -11 -28 -50 0 -50 4 -53 86 -62 l54 -7 0 67 0 66 -32 -1 c-18 0 -37 -2 -43 -4z m25 -60 c0 -36 -6 -40 -47 -29 -16 4 -23 14 -23 29 0 22 11 29 58 34 7 0 12 -12 12 -34z"/>
<path d="M762 180 c0 -19 2 -27 5 -17 2 9 2 25 0 35 -3 9 -5 1 -5 -18z"/>
</g>
<g id="layer106" fill="#f4f4f4" stroke="none">
<path d="M15 259 c-11 -17 -2 -18 19 -3 17 12 17 14 4 14 -9 0 -20 -5 -23 -11z"/>
<path d="M143 208 c-43 -9 -43 -10 -43 -53 l0 -43 50 -11 c91 -19 90 -20 90 54 0 65 0 65 -27 64 -16 -1 -47 -5 -70 -11z m47 -54 c0 -34 -1 -35 -32 -32 -27 2 -34 8 -36 30 -3 26 7 34 51 37 13 1 17 -7 17 -35z"/>
</g>


</svg>